<svg xmlns="http://www.w3.org/2000/svg" xmlns:xlink="http://www.w3.org/1999/xlink" viewBox="0 0 50 50" version="1.1" width="30" height="50" style="fill: rgb(238, 1, 124);">
<g id="surface1">
<path style=" stroke:none;fill-rule:nonzero;fill-opacity:1;" d="M 50 28.792969 L 50 21.105469 L 42.65625 19.90625 C 42.273438 18.578125 41.746094 17.304688 41.082031 16.101563 L 45.359375 10.003906 L 39.921875 4.570313 L 33.902344 8.898438 C 32.6875 8.222656 31.402344 7.6875 30.070313 7.304688 L 28.789063 -0.00390625 L 21.101563 -0.00390625 L 19.914063 7.28125 C 18.570313 7.660156 17.285156 8.1875 16.078125 8.855469 L 10.070313 4.566406 L 4.636719 10 L 8.859375 16.039063 C 8.179688 17.261719 7.640625 18.554688 7.253906 19.898438 L 0 21.105469 L 0 28.792969 L 7.242188 30.074219 C 7.628906 31.421875 8.164063 32.714844 8.847656 33.9375 L 4.566406 39.921875 L 10 45.363281 L 16.046875 41.128906 C 17.265625 41.800781 18.554688 42.332031 19.890625 42.714844 L 21.105469 50.003906 L 28.789063 50.003906 L 30.085938 42.695313 C 31.425781 42.304688 32.707031 41.769531 33.914063 41.09375 L 40 45.363281 L 45.4375 39.921875 L 41.089844 33.886719 C 41.757813 32.679688 42.28125 31.40625 42.660156 30.082031 Z M 25 32 C 21.140625 32 18 28.859375 18 25 C 18 21.140625 21.140625 18 25 18 C 28.859375 18 32 21.140625 32 25 C 32 28.859375 28.859375 32 25 32 Z "/>
</g>
</svg>